# xmcd
#
# Track frame offsets:
#	150
#	17465
#	35660
#	51642
#	69420
#	94325
#	115520
#	139447
#	157475
#	172420
#
# Disc length: 2579 seconds
#
# Revision: 1
# Processed by: cddbd v1.5.2PL0 Copyright (c) Steve Scherf et al.
# Submitted via: EasyCDDAExtractor 16.0.6.1
#
DISCID=980a110a
DTITLE=Μητσιάς Μανώλης - Πολιτεία Γ-Μ. Θεοδωράκης
DYEAR=1994
DGENRE=Έντεχνη λαϊκή
TTITLE0=Μητσιάς Μανώλης-Γαλάνη Δήμητρα - Εκείνα που είχα να σού πω [Μάνος Ελευ
TTITLE0=θερίου]
TTITLE1=Μητσιάς Μανώλης - Έστω κι από λύπη μίλησέ μου [Μάνος Ελευθερίου]
TTITLE2=Μητσιάς Μανώλης-Γαλάνη Δήμητρα - Ήσουν μπαξές [Μάνος Ελευθερίου]
TTITLE3=Μητσιάς Μανώλης - Ποιοι είμαστε ΄μεις [Μάνος Ελευθερίου]
TTITLE4=Μητσιάς Μανώλης - Η ελπίδα που έλεγες [Μάνος Ελευθερίου]
TTITLE5=Μητσιάς Μανώλης-Γαλάνη Δήμητρα - Ξένος στην στράτα και ορφανός [Δημ. Κ
TTITLE5=εσίσογλου]
TTITLE6=Μητσιάς Μανώλης - Δεν έχει ο δρόμος γυρισμό [Δημ. Κεσίσογλου]
TTITLE7=Μητσιάς Μανώλης - Το πάθος που διώκεται [Λίνα Νικολακοπούλου]
TTITLE8=Μητσιάς Μανώλης-Γαλάνη Δήμητρα - Μιλάω παλιά [Λίνα Νικολακοπούλου]
TTITLE9=Μητσιάς Μανώλης-Γαλάνη Δήμητρα - Αχ! Έλα κι άναψε το φως [Λίνα Νικολακ
TTITLE9=οπούλου]
EXTD=YEAR: 1994
EXTT0=
EXTT1=
EXTT2=
EXTT3=
EXTT4=
EXTT5=
EXTT6=
EXTT7=
EXTT8=
EXTT9=
PLAYORDER=
